<svg width="391" height="391" viewBox="0 0 391 391" fill="none" xmlns="http://www.w3.org/2000/svg">
<path fillRule="evenodd" clipRule="evenodd" d="M296.666 329.641H260.813C257.002 329.641 253.897 332.734 253.897 336.558C253.897 340.38 256.99 343.474 260.813 343.474H296.666C309.417 343.474 321.003 338.275 329.39 329.888C337.776 321.501 342.976 309.927 342.976 297.164V261.312C342.976 257.501 339.882 254.395 336.059 254.395C332.248 254.395 329.142 257.489 329.142 261.312V297.164C329.142 306.104 325.496 314.232 319.603 320.114C313.709 326.007 305.605 329.654 296.653 329.654L296.666 329.641ZM61.8333 297.152V261.3C61.8333 257.489 58.7398 254.383 54.9166 254.383C51.0938 254.383 48 257.477 48 261.3V297.152C48 309.903 53.1993 321.489 61.586 329.876C69.9728 338.262 81.5476 343.462 94.3098 343.462H130.162C133.985 343.462 137.079 340.368 137.079 336.545C137.079 332.734 133.985 329.629 130.162 329.629H94.3098C85.3698 329.629 77.2418 325.982 71.3604 320.089C65.4673 314.196 61.8206 306.091 61.8206 297.139L61.8333 297.152ZM130.175 62.3195C133.997 62.3195 137.091 59.226 137.091 55.4029C137.091 51.5801 133.998 48.4863 130.175 48.4863H94.3221C81.5711 48.4863 69.9848 53.6855 61.5984 62.0723C53.2119 70.459 48.0123 82.0338 48.0123 94.796V130.648C48.0123 134.471 51.1058 137.565 54.929 137.565C58.7401 137.565 61.8456 134.472 61.8456 130.648V94.796C61.8456 85.8561 65.492 77.728 71.3854 71.8466C77.2785 65.9535 85.3831 62.3069 94.3347 62.3069H130.187L130.175 62.3195ZM319.627 71.8593C325.52 77.7524 329.167 85.857 329.167 94.8086V130.661C329.167 134.484 332.26 137.578 336.083 137.578C339.906 137.578 343 134.484 343 130.661V94.8086C343 82.0576 337.801 70.4714 329.414 62.0849C321.027 53.6985 309.452 48.4989 296.69 48.4989H260.838C257.027 48.4989 253.921 51.5924 253.921 55.4155C253.921 59.2266 257.015 62.3322 260.838 62.3322H296.69C305.63 62.3322 313.758 65.9785 319.64 71.8719L319.627 71.8593Z" fill="#111828"/>
<path d="M228.352 182.624C230.215 185.718 233.553 187.622 237.154 187.622H265.198C267.261 187.622 269.249 186.795 270.712 185.33C272.175 183.864 273 181.885 273 179.806C273 177.739 272.175 175.747 270.712 174.281C269.249 172.816 267.261 171.989 265.198 172.002H241.167L229.239 152.824C225.726 147.162 220.762 142.54 214.886 139.409C209.147 136.365 202.733 134.849 196.244 135.012L169.487 135.701C166.024 135.788 162.735 137.279 160.385 139.835L139.342 162.732C136.779 165.526 136.892 169.86 139.605 172.503C142.318 175.158 146.644 175.171 149.37 172.528L170.688 151.885H188.204L169.275 184.128C168.087 186.157 167.174 188.349 166.587 190.629L158.51 221.431H128.177C123.114 221.431 119 225.552 119 230.625C119 235.71 123.114 239.832 128.177 239.832H164.573C168.637 239.832 172.225 237.151 173.375 233.243L183.065 200.461L209.559 220.791L199.106 254.749C198.256 257.455 198.731 260.411 200.382 262.729H167.462C162.51 262.729 157.734 260.925 153.996 257.668L151.858 255.802C149.72 253.948 146.482 254.173 144.631 256.303C142.768 258.445 142.993 261.689 145.132 263.555L147.27 265.422C152.871 270.307 160.035 273 167.462 273H245.244C252.671 273 259.835 270.307 265.436 265.422L267.574 263.555C268.612 262.653 269.237 261.388 269.337 260.035C269.425 258.67 268.975 257.33 268.087 256.302C267.187 255.275 265.924 254.636 264.574 254.549C263.211 254.461 261.873 254.912 260.848 255.801L258.71 257.668C254.971 260.937 250.195 262.728 245.244 262.728H215.249C215.787 261.964 216.212 261.125 216.499 260.235L229.39 220.027V220.014C230.565 216.369 229.327 212.373 226.314 210.018L203.358 192.106L218.312 165.789L228.352 182.624Z" fill="#111828"/>
<path d="M213.505 132C220.987 132 227.723 127.499 230.594 120.587C233.452 113.675 231.874 105.718 226.58 100.422C221.285 95.1264 213.331 93.5472 206.421 96.4068C199.511 99.2786 195 106.017 195 113.501C195 123.72 203.289 132 213.505 132Z" fill="#111828"/>
<path d="M190.816 284.818C193.258 298.615 170.639 301.979 168.184 288.182C165.742 274.385 188.361 271.021 190.816 284.818Z" fill="#111828"/>
<path d="M246.174 276.916C259.616 282.212 251.272 301.38 237.831 296.084C224.377 290.788 232.733 271.62 246.174 276.916Z" fill="#111828"/>
</svg>

